<?xml version="1.0" standalone="no"?>
<!DOCTYPE svg PUBLIC "-//W3C//DTD SVG 20010904//EN"
 "http://www.w3.org/TR/2001/REC-SVG-20010904/DTD/svg10.dtd">
<svg version="1.0" xmlns="http://www.w3.org/2000/svg"
 width="400.000000pt" height="400.000000pt" viewBox="0 0 400.000000 400.000000"
 preserveAspectRatio="xMidYMid meet">

<g transform="translate(0.000000,400.000000) scale(0.100000,-0.100000)"
fill="#000000" stroke="none">
<path d="M1880 3864 c-241 -37 -411 -111 -576 -248 -328 -274 -470 -710 -367
-1121 l18 -70 170 4 c94 2 171 4 172 5 0 0 -13 42 -30 91 -42 124 -49 291 -18
416 66 267 258 478 510 564 432 147 886 -100 1012 -550 28 -101 31 -278 6
-370 -18 -64 -17 -73 4 -53 8 7 39 33 69 58 30 25 57 47 60 50 3 3 25 21 50
40 25 19 47 37 50 40 3 3 27 23 54 45 l49 40 -6 85 c-20 294 -215 617 -479
793 -149 99 -289 151 -491 181 -123 18 -140 18 -257 0z"/>
<path d="M907 2324 c-438 -79 -789 -423 -882 -864 -99 -473 139 -981 565
-1204 153 -80 432 -146 560 -132 308 34 495 110 701 287 102 88 101 81 24 207
-37 59 -77 124 -89 145 l-23 39 -51 -64 c-157 -197 -432 -310 -682 -280 -109
14 -228 51 -310 99 -38 22 -105 77 -160 133 -81 80 -103 110 -143 190 -117
235 -118 471 -3 705 99 200 266 339 488 407 72 22 85 22 773 28 l700 5 87 150
c48 83 87 153 88 158 0 4 -352 7 -782 6 -629 -1 -798 -4 -861 -15z"/>
<path d="M3084 2278 c-10 -24 -46 -91 -80 -150 l-61 -107 26 -5 c14 -3 46 -8
71 -12 184 -27 392 -168 503 -340 90 -139 127 -261 127 -422 0 -128 -20 -221
-72 -332 -100 -217 -298 -381 -523 -436 -94 -23 -276 -23 -370 0 -152 37 -315
138 -415 260 -36 44 -301 492 -689 1169 l-15 27 -188 0 -187 0 33 -57 c19 -32
185 -321 371 -643 185 -322 357 -613 381 -647 97 -136 247 -262 399 -337 112
-56 226 -89 377 -111 111 -16 125 -16 235 0 65 9 154 28 198 40 360 105 643
391 749 759 165 568 -160 1175 -727 1355 -53 17 -103 31 -111 31 -7 0 -22 -19
-32 -42z"/>
</g>
</svg>
